# xmcd
#
# Track frame offsets: 
#        150
#        15763
#        31172
#        47368
#        63809
#        83081
#        96833
#        116450
#        132546
#        148687
#        166074
#        182696
#        199211
#
# Disc length: 2971 seconds
#
# Revision: 0
# Processed by: cddbd v1.5.2PL0 Copyright (c) Steve Scherf et al.
# Submitted via: ExactAudioCopy v0.99pb5
#
DISCID=9c0b990d
DTITLE=Various Artist - KHP Music: Lil House Big Party
DYEAR=2011
DGENRE=Beach
TTITLE0=Fantastic Shakers - I Still Do
TTITLE1=Rhonda McDaniel - Lightin' Up
TTITLE2=Angel Rissoff - Open The Door To Your Heart
TTITLE3=Austin de Lone - Let's Walk
TTITLE4=The Soul Children - Lil House Big Party
TTITLE5=Paul Craver - Every Day I Have to Cry Some
TTITLE6=Rene Russell - Out Of My Mind In Love
TTITLE7=Albert Rogers - Stuff You Gotta Watch
TTITLE8=Gary U.S. Bonds - Pour Me
TTITLE9=Black Water R&B Band - I Found You Out
TTITLE10=Ron Moody - Lulu's Chicken Shack
TTITLE11=North Tower - Know Her When I See Her
TTITLE12=Sir Jonathan Burton - General Johnson
EXTD=
EXTT0=
EXTT1=
EXTT2=
EXTT3=
EXTT4=
EXTT5=
EXTT6=
EXTT7=
EXTT8=
EXTT9=
EXTT10=
EXTT11=
EXTT12=
PLAYORDER=
